<svg xmlns="http://www.w3.org/2000/svg" viewBox="0 0 64 64">
  <rect width="64" height="64" rx="12" fill="#0d0b12"/>
  <rect x="10" y="10" width="44" height="44" rx="8" fill="#171021"/>
  <path d="M15 16h34" stroke="#7d42ee" stroke-width="2.5" stroke-linecap="round"/>
  <path d="M15 48h34" stroke="#3a1d64" stroke-width="2.5" stroke-linecap="round"/>
  <path
    d="M17 24h15.4c5.1 0 8.3 3 8.3 7.3 0 3-1.6 5.3-4.3 6.4L42.5 48h-9.2l-4.8-8h-3.2v8H17V24zm8.3 6.3v3.8h6.4c1.1 0 1.9-.8 1.9-1.9s-.8-1.9-1.9-1.9h-6.4z"
    fill="#f4efff"
  />
  <path d="M38 24h17v6.7h-4.5V48h-8V30.7H38V24z" fill="#a974ff"/>
</svg>
