<svg width="1200" height="630" viewBox="0 0 1200 630" fill="none" xmlns="http://www.w3.org/2000/svg" role="img" aria-labelledby="title desc">
  <title id="title">RolaTools - Índice de herramientas</title>
  <desc id="desc">RolaTools centraliza Replay Analyzer, Divine Pride Search y Progress Tracker para Ragnarok Online LATAM.</desc>

  <rect width="1200" height="630" fill="#100d18" />
  <defs>
    <radialGradient id="g1" cx="0" cy="0" r="1" gradientUnits="userSpaceOnUse" gradientTransform="translate(210 -40) rotate(64) scale(370 390)">
      <stop stop-color="#9B7CFF" stop-opacity="0.42" />
      <stop offset="1" stop-color="#9B7CFF" stop-opacity="0" />
    </radialGradient>
    <radialGradient id="g2" cx="0" cy="0" r="1" gradientUnits="userSpaceOnUse" gradientTransform="translate(1010 20) rotate(110) scale(320 300)">
      <stop stop-color="#C9B8FF" stop-opacity="0.28" />
      <stop offset="1" stop-color="#C9B8FF" stop-opacity="0" />
    </radialGradient>
    <linearGradient id="card" x1="0" y1="0" x2="0" y2="1">
      <stop stop-color="#1A1526" />
      <stop offset="1" stop-color="#130F1D" />
    </linearGradient>
  </defs>

  <rect width="1200" height="630" fill="url(#g1)" />
  <rect width="1200" height="630" fill="url(#g2)" />

  <rect x="68" y="68" width="1064" height="494" rx="24" fill="url(#card)" stroke="#33294B" stroke-width="2" />

  <g transform="translate(114 148)">
    <rect width="110" height="110" rx="20" fill="#0d0b12"/>
    <rect x="17" y="17" width="76" height="76" rx="14" fill="#171021"/>
    <path d="M25.8 27.5h58.4" stroke="#7d42ee" stroke-width="4.2" stroke-linecap="round"/>
    <path d="M25.8 82.5h58.4" stroke="#3a1d64" stroke-width="4.2" stroke-linecap="round"/>
    <path d="M29 42h26.4c8.8 0 14.4 5.1 14.4 12.6 0 5.2-2.8 9.2-7.4 11.1L73 83H57.2l-8.3-13.8h-5.5V83H29V42zm14.3 10.8v6.6h10.9c1.9 0 3.3-1.4 3.3-3.3s-1.4-3.3-3.3-3.3H43.3z" fill="#f4efff"/>
    <path d="M65.3 42h29.2v11.6h-7.8V83H72.9V53.6h-7.6V42z" fill="#a974ff"/>
  </g>

  <text x="248" y="190" fill="#9B7CFF" font-family="Aptos, Segoe UI, Helvetica Neue, Arial, sans-serif" font-size="26" font-weight="700" letter-spacing="1.2">RAGNAROK ONLINE LATAM TOOLKIT</text>
  <text x="248" y="258" fill="#F7F3FF" font-family="Aptos, Segoe UI, Helvetica Neue, Arial, sans-serif" font-size="82" font-weight="800">RolaTools</text>
  <text x="248" y="316" fill="#BCB2CF" font-family="Aptos, Segoe UI, Helvetica Neue, Arial, sans-serif" font-size="32" font-weight="500">Índice de herramientas para RO LATAM</text>

  <g transform="translate(248 370)">
    <rect width="260" height="58" rx="12" fill="#1F1830" stroke="#3D305D" />
    <text x="22" y="36" fill="#C9B8FF" font-family="Aptos, Segoe UI, Helvetica Neue, Arial, sans-serif" font-size="24" font-weight="700">Replay Analyzer</text>
  </g>
  <g transform="translate(522 370)">
    <rect width="290" height="58" rx="12" fill="#1F1830" stroke="#3D305D" />
    <text x="22" y="36" fill="#C9B8FF" font-family="Aptos, Segoe UI, Helvetica Neue, Arial, sans-serif" font-size="24" font-weight="700">Divine Pride Search</text>
  </g>
  <g transform="translate(826 370)">
    <rect width="245" height="58" rx="12" fill="#1F1830" stroke="#3D305D" />
    <text x="22" y="36" fill="#C9B8FF" font-family="Aptos, Segoe UI, Helvetica Neue, Arial, sans-serif" font-size="24" font-weight="700">Progress Tracker</text>
  </g>
</svg>
